<svg width="79" height="79" viewBox="0 0 79 79" fill="none" xmlns="http://www.w3.org/2000/svg">
<path d="M0 6.21429C0 4.4391 1.43919 3 3.2145 3H5.6072C9.68091 3 12.12 5.73853 13.5148 8.28424C14.4445 9.98117 15.117 11.9493 15.6431 13.7312C15.7856 13.72 15.9299 13.7143 16.0759 13.7143H69.6393C73.1975 13.7143 75.767 17.1189 74.7915 20.5406L66.9575 48.0081C65.514 53.0709 60.8877 56.562 55.6232 56.562H30.1296C24.8214 56.562 20.1682 53.0139 18.7634 47.8954L15.5039 36.0193L10.1095 17.8105L10.1008 17.7786C9.43347 15.345 8.80716 13.0716 7.8765 11.373C6.97271 9.72343 6.25228 9.42857 5.6072 9.42857H3.2145C1.43919 9.42857 0 7.98947 0 6.21429ZM21.7421 34.4584L24.9631 46.194C25.6017 48.5207 27.7168 50.1334 30.1296 50.1334H55.6232C58.0161 50.1334 60.1188 48.5464 60.7754 46.2454L68.2193 20.1429H17.5104L21.6831 34.2291C21.7057 34.3054 21.7254 34.3817 21.7421 34.4584ZM36.431 69.4286C36.431 74.1626 32.5933 78 27.859 78C23.1248 78 19.287 74.1626 19.287 69.4286C19.287 64.6946 23.1248 60.8571 27.859 60.8571C32.5933 60.8571 36.431 64.6946 36.431 69.4286ZM30.002 69.4286C30.002 68.2453 29.0425 67.2857 27.859 67.2857C26.6754 67.2857 25.716 68.2453 25.716 69.4286C25.716 70.6119 26.6754 71.5714 27.859 71.5714C29.0425 71.5714 30.002 70.6119 30.002 69.4286ZM66.4329 69.4286C66.4329 74.1626 62.5952 78 57.8609 78C53.1266 78 49.2889 74.1626 49.2889 69.4286C49.2889 64.6946 53.1266 60.8571 57.8609 60.8571C62.5952 60.8571 66.4329 64.6946 66.4329 69.4286ZM60.0039 69.4286C60.0039 68.2453 59.0443 67.2857 57.8609 67.2857C56.6776 67.2857 55.7179 68.2453 55.7179 69.4286C55.7179 70.6119 56.6776 71.5714 57.8609 71.5714C59.0443 71.5714 60.0039 70.6119 60.0039 69.4286Z" fill="black"/>
</svg>
