<svg xmlns="http://www.w3.org/2000/svg" viewBox="0 0 36.48 44.5"><defs><style>.cls-1{fill:#1d71b8;}</style></defs><g id="Capa_2" data-name="Capa 2"><g id="Capa_2-2" data-name="Capa 2"><path class="cls-1" d="M35.4,17.27l-.49-.05a1.2,1.2,0,0,0-1.31.94L34,14.34a1.52,1.52,0,0,0-1.51-1.67H23.67a1.13,1.13,0,0,0,.09-.45V10.84a1.09,1.09,0,0,0-1.09-1.1H19.62L18.9,3.63a1.94,1.94,0,1,0-2,0l-.63,6.14H13.49a1.1,1.1,0,0,0-1.1,1.1v1.38a1.14,1.14,0,0,0,.1.45H4A1.51,1.51,0,0,0,2.5,14.34l.38,3.82a1.2,1.2,0,0,0-1.31-.94l-.49.05A1.22,1.22,0,0,0,0,18.62l.75,6.62a1.22,1.22,0,0,0,1.35,1.07l.49-.06a1.18,1.18,0,0,0,1-.86L4.83,37.25l-.25-2.44c19.8,2.65,27.32,0,27.32,0l-.25,2.44,1.21-11.86a1.19,1.19,0,0,0,1,.86l.49.06a1.22,1.22,0,0,0,1.35-1.07l.75-6.62A1.22,1.22,0,0,0,35.4,17.27ZM11.74,25.66a3.58,3.58,0,1,1,3.58-3.57A3.57,3.57,0,0,1,11.74,25.66Zm12.67,1.95a5.52,5.52,0,1,1,5.52-5.52A5.52,5.52,0,0,1,24.41,27.61Z"/><path class="cls-1" d="M4.83,37.26l.6,5.88A1.52,1.52,0,0,0,6.94,44.5h22.6a1.52,1.52,0,0,0,1.51-1.36l.6-5.88C18.74,42,4.83,37.26,4.83,37.26Z"/><polygon class="cls-1" points="31.65 37.26 31.65 37.25 31.65 37.26 31.65 37.26"/><polygon class="cls-1" points="4.83 37.26 4.83 37.26 4.83 37.25 4.83 37.26"/></g></g></svg>