<svg width="120" height="24" viewBox="0 0 120 24" fill="none" xmlns="http://www.w3.org/2000/svg">
<g clip-path="url(#clip0_103_24)">
<path d="M35.8229 6.88159C36.9879 6.88159 37.5704 7.4641 37.5704 8.62913V14.737C37.5704 15.9043 37.0852 16.4846 36.1147 16.4846H28.8327V23.4747H24.7608V6.88159H35.8229ZM28.8327 10.3767V13.8717H32.9046C32.9838 13.8832 33.0646 13.876 33.1405 13.8507C33.2163 13.8254 33.2852 13.7827 33.3416 13.7259C33.398 13.6692 33.4404 13.6001 33.4652 13.524C33.4901 13.448 33.4969 13.3672 33.4849 13.2881V10.9603C33.4969 10.8812 33.4901 10.8004 33.4652 10.7244C33.4404 10.6484 33.398 10.5792 33.3416 10.5225C33.2852 10.4658 33.2163 10.423 33.1405 10.3977C33.0646 10.3724 32.9838 10.3652 32.9046 10.3767H28.8327Z" fill="#EF7810"/>
<path d="M42.6739 9.77948H39.8982V6.86804H42.6739C43.0195 6.86804 43.3509 7.00532 43.5953 7.24969C43.8396 7.49405 43.9769 7.82548 43.9769 8.17106V8.47646C43.9769 8.64757 43.9432 8.81701 43.8777 8.9751C43.8122 9.13319 43.7163 9.27684 43.5953 9.39783C43.4743 9.51883 43.3306 9.61481 43.1725 9.68029C43.0145 9.74578 42.845 9.77948 42.6739 9.77948ZM39.8982 10.9468H42.6739C43.0195 10.9468 43.3509 11.084 43.5953 11.3284C43.8396 11.5728 43.9769 11.9042 43.9769 12.2498V22.165C43.9769 22.5105 43.8396 22.842 43.5953 23.0863C43.3509 23.3307 43.0195 23.468 42.6739 23.468H39.8982V10.9468Z" fill="#EF7810"/>
<path d="M47.6009 6.88159H50.3733V23.4815H47.6009C47.255 23.4815 46.9233 23.3444 46.6784 23.1001C46.4335 22.8558 46.2954 22.5244 46.2945 22.1785V8.18461C46.2954 7.83872 46.4335 7.5073 46.6784 7.26303C46.9233 7.01876 47.255 6.88159 47.6009 6.88159Z" fill="#EF7810"/>
<path d="M64.944 21.734C64.944 22.8979 64.3638 23.4815 63.1965 23.4815H54.4622C53.2949 23.4815 52.7146 22.8979 52.7146 21.734V12.7045C52.7146 11.5474 53.2949 10.9671 54.4622 10.9603H63.21C64.3773 10.9603 64.9576 11.5474 64.9576 12.7045L64.944 21.734ZM57.3736 19.9865H60.285C60.3643 19.9978 60.4452 19.9905 60.5211 19.9652C60.5971 19.9399 60.6662 19.8972 60.7228 19.8406C60.7795 19.784 60.8221 19.7149 60.8474 19.6389C60.8728 19.5629 60.88 19.4821 60.8687 19.4028V15.0357C60.8766 14.9571 60.867 14.8777 60.8405 14.8032C60.814 14.7288 60.7712 14.6612 60.7154 14.6054C60.6595 14.5495 60.5919 14.5067 60.5175 14.4802C60.443 14.4537 60.3636 14.4441 60.285 14.452H57.3736C57.2946 14.4421 57.2143 14.4503 57.139 14.4762C57.0637 14.502 56.9952 14.5447 56.9389 14.601C56.8826 14.6573 56.8399 14.7257 56.8141 14.8011C56.7883 14.8764 56.78 14.9566 56.79 15.0357V19.4028C56.7786 19.4821 56.7859 19.5629 56.8112 19.6389C56.8365 19.7149 56.8792 19.784 56.9358 19.8406C56.9925 19.8972 57.0615 19.9399 57.1375 19.9652C57.2135 19.9905 57.2943 19.9978 57.3736 19.9865Z" fill="#EF7810"/>
<path d="M77.4788 6.88159H66.9325H65.2358L65.2494 10.3767H66.9325H70.1493V23.4815H70.1866H74.2246H74.2654V10.3767H77.4788H79.1653L79.1754 6.88159H77.4788Z" fill="#EF7810"/>
<path d="M90.2952 18.8226C91.4602 18.8226 92.0427 18.3373 92.0427 17.3668V12.9963C92.0427 11.639 91.4602 10.9603 90.2952 10.9603H81.8493C81.3094 10.9603 80.7915 11.1748 80.4097 11.5567C80.0279 11.9385 79.8134 12.4563 79.8134 12.9963V21.4422C79.8134 21.9821 80.0279 22.5 80.4097 22.8818C80.7915 23.2636 81.3094 23.4781 81.8493 23.4781H91.7509C91.7892 23.4781 91.8272 23.4706 91.8626 23.4559C91.898 23.4413 91.9302 23.4198 91.9573 23.3927C91.9844 23.3656 92.0059 23.3334 92.0205 23.298C92.0352 23.2626 92.0427 23.2246 92.0427 23.1863V20.2986C92.0427 20.2603 92.0352 20.2224 92.0205 20.187C92.0059 20.1516 91.9844 20.1194 91.9573 20.0923C91.9302 20.0652 91.898 20.0437 91.8626 20.029C91.8272 20.0144 91.7892 20.0068 91.7509 20.0068H84.7608C84.5295 20.0068 84.3077 19.9149 84.1441 19.7514C83.9806 19.5878 83.8887 19.366 83.8887 19.1347C83.8882 19.0963 83.8955 19.0581 83.91 19.0225C83.9245 18.9869 83.946 18.9546 83.9731 18.9274C84.0003 18.9002 84.0327 18.8787 84.0683 18.8642C84.1039 18.8497 84.1421 18.8425 84.1805 18.8429L90.2952 18.8226ZM83.8887 15.0357C83.8788 14.9566 83.887 14.8764 83.9128 14.8011C83.9387 14.7257 83.9814 14.6573 84.0377 14.601C84.094 14.5447 84.1624 14.502 84.2378 14.4762C84.3131 14.4503 84.3933 14.4421 84.4723 14.452H87.3838C87.4628 14.4413 87.5432 14.449 87.6188 14.4745C87.6943 14.5001 87.7629 14.5429 87.8191 14.5994C87.8754 14.656 87.9177 14.7248 87.9429 14.8005C87.968 14.8762 87.9752 14.9567 87.964 15.0357V15.6193C87.9754 15.6981 87.9682 15.7785 87.9431 15.8541C87.9179 15.9297 87.8755 15.9984 87.8192 16.0547C87.7629 16.111 87.6942 16.1535 87.6186 16.1786C87.543 16.2037 87.4626 16.2109 87.3838 16.1996H83.8887V15.0357Z" fill="#EF7810"/>
<path d="M111.836 14.9474V22.9861C111.836 23.1175 111.784 23.2435 111.691 23.3364C111.598 23.4293 111.472 23.4815 111.34 23.4815H108.252C108.121 23.4815 107.995 23.4293 107.902 23.3364C107.809 23.2435 107.757 23.1175 107.757 22.9861V7.37701C107.757 7.24561 107.809 7.1196 107.902 7.02669C107.995 6.93378 108.121 6.88159 108.252 6.88159H111.34C111.472 6.88159 111.598 6.93378 111.691 7.02669C111.784 7.1196 111.836 7.24561 111.836 7.37701V10.4581C111.836 10.5895 111.888 10.7155 111.981 10.8084C112.074 10.9013 112.2 10.9535 112.331 10.9535H118.242C119.401 10.9535 119.983 11.5349 119.99 12.6977V22.9793C119.99 23.1107 119.938 23.2367 119.845 23.3296C119.752 23.4225 119.626 23.4747 119.494 23.4747H116.407C116.342 23.4747 116.277 23.4619 116.217 23.437C116.158 23.412 116.103 23.3755 116.057 23.3294C116.012 23.2834 115.975 23.2287 115.951 23.1686C115.926 23.1086 115.914 23.0442 115.915 22.9793V15.0356C115.924 14.9568 115.915 14.8768 115.889 14.8018C115.863 14.7268 115.82 14.6586 115.764 14.6025C115.708 14.5463 115.64 14.5036 115.565 14.4775C115.49 14.4515 115.41 14.4428 115.331 14.452H112.318C112.189 14.4555 112.066 14.5093 111.976 14.6018C111.886 14.6943 111.836 14.8183 111.836 14.9474Z" fill="#EF7810"/>
<path d="M99.5182 14.452H105.524C105.657 14.452 105.783 14.3994 105.877 14.3059C105.971 14.2123 106.023 14.0854 106.023 13.9532V11.4761C106.023 11.3438 105.971 11.2169 105.877 11.1233C105.783 11.0298 105.657 10.9772 105.524 10.9772H96.1249C95.9887 10.9756 95.8525 10.9847 95.7177 11.0044C94.8264 11.1311 94.3807 11.7034 94.3807 12.7214V21.7509C94.3807 22.7689 94.8264 23.3424 95.7177 23.4713C95.8527 23.4894 95.9887 23.4984 96.1249 23.4985H105.524C105.657 23.4985 105.783 23.4459 105.877 23.3524C105.971 23.2588 106.023 23.1319 106.023 22.9996V20.5022C106.023 20.3699 105.971 20.243 105.877 20.1495C105.783 20.0559 105.657 20.0034 105.524 20.0034H99.5182C99.2311 20.0034 98.9558 19.8893 98.7528 19.6863C98.5498 19.4833 98.4357 19.208 98.4357 18.9209V15.548C98.4339 15.4047 98.4606 15.2625 98.5142 15.1296C98.5678 14.9967 98.6472 14.8758 98.7479 14.7738C98.8486 14.6718 98.9685 14.5909 99.1008 14.5356C99.233 14.4804 99.3749 14.452 99.5182 14.452Z" fill="#EF7810"/>
<path d="M16.7594 19.7252L17.3974 13.4476C17.4344 13.5677 17.5053 13.6745 17.6016 13.7551C17.698 13.8358 17.8156 13.8869 17.9403 13.9023L18.2016 13.9294C18.3712 13.9485 18.5414 13.8996 18.675 13.7934C18.8086 13.6871 18.8946 13.5323 18.9142 13.3628L19.3146 9.85749C19.3327 9.68807 19.2835 9.5183 19.1774 9.38494C19.0714 9.25158 18.917 9.16534 18.7479 9.14491L18.4866 9.11776C18.3319 9.10276 18.1771 9.14536 18.0519 9.23741C17.9267 9.32945 17.8398 9.46446 17.8079 9.61657L18.0115 7.5806C18.0191 7.46981 18.0035 7.35865 17.9658 7.2542C17.9281 7.14975 17.8691 7.05429 17.7925 6.97388C17.7159 6.89346 17.6234 6.82985 17.5209 6.78709C17.4184 6.74433 17.3082 6.72336 17.1972 6.72549H12.5314C12.5654 6.65214 12.5827 6.5722 12.5823 6.49136V5.75502C12.5823 5.60202 12.5215 5.4553 12.4133 5.34711C12.3052 5.23893 12.1584 5.17816 12.0054 5.17816H10.3902L10.0102 1.93757C10.2002 1.82396 10.348 1.6515 10.4311 1.44634C10.5143 1.24118 10.5283 1.0145 10.4711 0.800647C10.4139 0.586797 10.2885 0.397438 10.1139 0.261264C9.93937 0.125091 9.7252 0.0495283 9.50384 0.0460259C9.28249 0.0425235 9.06603 0.111272 8.88726 0.241856C8.7085 0.372439 8.57718 0.557737 8.51319 0.769669C8.44921 0.981601 8.45606 1.20861 8.5327 1.4163C8.60934 1.62399 8.7516 1.80104 8.93791 1.92061L8.59858 5.17816H7.13608C6.98277 5.17816 6.83569 5.23882 6.72697 5.34691C6.61825 5.45499 6.55672 5.60171 6.55583 5.75502V6.49136C6.55699 6.57202 6.57429 6.65163 6.60672 6.72549H2.13099C2.01857 6.72534 1.90738 6.74885 1.80466 6.7945C1.70193 6.84016 1.60997 6.90692 1.53475 6.99047C1.45953 7.07401 1.40274 7.17245 1.36808 7.27938C1.33342 7.38632 1.32166 7.49936 1.33357 7.61114L1.54056 9.64711C1.50704 9.49187 1.41682 9.35472 1.28755 9.26248C1.15827 9.17023 0.999236 9.12951 0.841538 9.1483L0.580257 9.17544C0.496432 9.18513 0.415342 9.21125 0.341633 9.25233C0.267925 9.29341 0.203048 9.34863 0.15072 9.41483C0.0983919 9.48103 0.0596415 9.5569 0.0366905 9.63811C0.0137395 9.71931 0.00703795 9.80424 0.0169711 9.88803L0.413987 13.3933C0.433575 13.5628 0.519583 13.7177 0.653159 13.8239C0.786736 13.9301 0.956982 13.9791 1.12658 13.96L1.38786 13.9328C1.51271 13.9179 1.63051 13.8669 1.72692 13.7862C1.82332 13.7054 1.89415 13.5984 1.93078 13.4781L2.57211 19.7557L2.43978 18.4629C12.9216 19.8677 16.8985 18.4629 16.8985 18.4629M6.23007 13.6172C5.85529 13.6179 5.48875 13.5074 5.17685 13.2996C4.86495 13.0918 4.62174 12.7961 4.47801 12.45C4.33428 12.1038 4.29649 11.7228 4.36945 11.3552C4.4424 10.9876 4.6228 10.6499 4.88781 10.3849C5.15282 10.1199 5.49051 9.93952 5.85812 9.86657C6.22573 9.79362 6.60672 9.8314 6.95284 9.97513C7.29896 10.1189 7.59464 10.3621 7.80244 10.674C8.01023 10.9859 8.1208 11.3524 8.12012 11.7272C8.11121 12.2246 7.90687 12.6986 7.55127 13.0466C7.19568 13.3945 6.71741 13.5886 6.21989 13.5867L6.23007 13.6172ZM12.9386 14.6352C12.3598 14.6359 11.7938 14.4648 11.3123 14.1437C10.8307 13.8225 10.4553 13.3658 10.2335 12.8311C10.0117 12.2965 9.95347 11.7081 10.0662 11.1404C10.179 10.5727 10.4576 10.0512 10.8669 9.64193C11.2762 9.23266 11.7977 8.95401 12.3654 8.84126C12.9331 8.7285 13.5215 8.78671 14.0561 9.00852C14.5907 9.23033 15.0475 9.60576 15.3687 10.0873C15.6898 10.5688 15.8609 11.1348 15.8602 11.7136C15.8548 12.487 15.5433 13.2268 14.9939 13.7712C14.4445 14.3155 13.7018 14.6201 12.9284 14.6183L12.9386 14.6352Z" fill="#EF7810"/>
<path d="M2.56192 19.7285L2.8775 22.8402C2.89768 23.0384 2.99078 23.2222 3.13875 23.3557C3.28671 23.4893 3.47899 23.5631 3.67831 23.5629H15.6396C15.8389 23.5631 16.0312 23.4893 16.1792 23.3557C16.3272 23.2222 16.4203 23.0384 16.4404 22.8402L16.756 19.7285C9.93552 22.2599 2.56192 19.7285 2.56192 19.7285Z" fill="#EF7810"/>
</g>
<defs>
<clipPath id="clip0_103_24">
<rect width="120" height="23.5629" fill="white"/>
</clipPath>
</defs>
</svg>
