<svg width="566" height="193" viewBox="0 0 566 193" fill="none" xmlns="http://www.w3.org/2000/svg">
<g clip-path="url(#clip0_110_874)">
<path d="M216.484 126.687L205.224 160.791H190.747L227.591 52.3692H244.478L281.484 160.791H266.516L254.933 126.687H216.484ZM252.047 115.751L241.423 84.5397C239.013 77.464 237.401 71.033 235.797 64.7554H235.474C233.863 71.1864 232.097 77.8017 230.001 84.3785L219.386 115.751H252.047Z" fill="black"/>
<path d="M291.847 108.345C291.847 98.3687 291.524 90.3337 291.202 82.9357H303.898L304.543 96.2813H304.865C310.653 86.796 319.825 81.1631 332.498 81.1631C351.327 81.1631 365.505 97.087 365.505 120.731C365.505 148.727 348.449 162.556 330.111 162.556C319.81 162.556 310.798 158.051 306.139 150.331H305.817V192.639H291.816L291.847 108.345ZM305.847 129.066C305.886 131.012 306.099 132.951 306.485 134.86C307.665 139.597 310.397 143.802 314.247 146.805C318.096 149.808 322.841 151.436 327.724 151.428C342.692 151.428 351.381 139.203 351.381 121.345C351.381 105.744 343.175 92.3904 328.207 92.3904C318.559 92.3904 309.547 99.2973 306.807 109.926C306.244 111.809 305.921 113.756 305.847 115.72V129.066Z" fill="black"/>
<path d="M377.249 108.345C377.249 98.3687 376.926 90.3337 376.604 82.9357H389.315L389.96 96.2813H390.283C396.078 86.796 405.243 81.1631 417.954 81.1631C436.783 81.1631 450.961 97.087 450.961 120.731C450.961 148.727 433.913 162.556 415.567 162.556C405.266 162.556 396.262 158.051 391.595 150.331H391.273V192.639H377.272L377.249 108.345ZM391.25 129.066C391.287 131.013 391.502 132.952 391.894 134.86C393.072 139.598 395.804 143.805 399.654 146.809C403.504 149.812 408.25 151.439 413.134 151.428C428.094 151.428 436.783 139.203 436.783 121.345C436.783 105.744 428.578 92.3904 413.61 92.3904C403.961 92.3904 394.95 99.2973 392.217 109.926C391.647 111.808 391.322 113.755 391.25 115.72V129.066Z" fill="black"/>
<path d="M468.032 46.5751H482.187V160.791H468.032V46.5751Z" fill="black"/>
<path d="M510.81 124.438C511.133 143.578 523.36 151.459 537.522 151.459C547.655 151.459 553.772 149.694 559.076 147.438L561.494 157.576C556.505 159.824 547.977 162.395 535.588 162.395C511.616 162.395 497.293 146.632 497.293 123.149C497.293 99.6657 511.109 81.1631 533.823 81.1631C559.238 81.1631 566 103.526 566 117.838C565.975 120.046 565.814 122.25 565.516 124.438H510.81ZM552.321 114.3C552.483 105.291 548.622 91.2777 532.694 91.2777C518.371 91.2777 512.1 104.462 510.971 114.3H552.321Z" fill="black"/>
<path d="M154.839 139.771C144.331 134.745 137.361 126.549 133.508 115.682C130.184 106.327 130.575 96.9336 133.584 87.5786C134.198 86.5887 134.267 85.3455 135.02 84.4169C138.27 77.5028 143.274 71.5601 149.535 67.1804C152.045 65.4 151.515 64.2795 149.988 62.3917C143.118 53.8579 133.868 49.4068 123.529 46.8282C122.728 46.3025 121.785 46.0346 120.827 46.0608C116.344 46.3141 111.792 45.3933 107.363 46.7439L99.7411 48.3479C97.8298 49.476 95.4886 49.453 93.6004 50.6502C85.4946 55.0092 77.2429 56.306 68.6306 52.0314C65.3407 50.4323 61.8902 49.1873 58.3372 48.3172C56.3491 47.4653 54.1461 47.5497 52.1043 46.9204C47.4066 46.836 42.801 46.8283 38.111 48.0485C19.6888 52.8373 8.65852 64.9779 3.00136 82.5827C-0.567952 93.718 -0.460548 105.145 0.829008 116.61C1.79617 119.089 3.97624 133.264 4.58264 135.029C9.78074 152.191 18.6167 168.032 30.4889 181.473C35.3708 186.96 40.8284 191.396 48.3201 192.647C50.6228 193.092 49.8553 193.092 52.158 192.647C57.3546 191.949 62.1367 189.892 66.9035 187.935C74.8941 184.666 83.023 183.806 91.5279 186.001C96.4789 187.275 100.862 189.961 105.805 191.143C108.338 192.041 111.017 192.071 113.627 192.447C122.946 192.248 129.439 187.076 135.043 180.314C135.773 179.25 136.559 178.225 137.399 177.245C143.917 169.298 149.31 160.492 153.427 151.075C154.194 149.909 154.071 148.389 154.962 147.238L155.077 147.3C155.906 146.141 155.844 144.637 156.558 143.463C157.756 141.429 156.152 140.669 154.839 139.771Z" fill="black"/>
<path d="M107.394 29.9449C100.962 37.3046 93.2011 42.2239 83.3836 43.8892C78.9316 44.6566 78.0105 44.2576 78.2331 39.7221C79.0007 24.7036 86.3465 13.5297 98.8736 5.60221C100.516 4.56619 102.051 3.03912 104.247 3.03145C105.874 1.81892 108.085 2.04134 109.712 0.790438C117.181 -0.744415 117.388 -0.552491 116.674 6.80713C116.557 8.44595 116.323 10.0745 115.976 11.6804L115.791 13.0693C114.786 14.8036 114.77 16.9066 113.68 18.6102C113.289 21.8104 110.871 24.0359 109.704 26.8601C109.029 27.9728 108.162 28.8859 107.394 29.9449Z" fill="black"/>
</g>
<defs>
<clipPath id="clip0_110_874">
<rect width="566" height="193" fill="white"/>
</clipPath>
</defs>
</svg>
