<svg width="297" height="45" viewBox="0 0 297 45" fill="none" xmlns="http://www.w3.org/2000/svg">
<g clip-path="url(#clip0_110_16)">
<path d="M297 34.1899C296.733 34.2191 296.839 34.4325 296.82 34.5683C296.144 39.0668 293.492 41.9861 289.154 43.3372C283.953 44.9575 278.7 44.9515 273.599 42.9188C269.364 41.2329 267.172 37.9752 266.951 33.5435C266.614 26.7637 266.868 19.9767 266.827 13.1945C266.826 12.1443 266.909 11.0956 267.075 10.0581C267.84 5.11696 270.78 2.06302 275.652 0.831991C280.3 -0.342038 284.974 -0.312924 289.54 1.23223C293.741 2.65368 296.148 5.59845 296.778 9.92708C296.814 10.1696 296.682 10.4983 297 10.6742V10.9168C296.859 11.3873 296.974 11.8676 296.937 12.3418C296.937 13.0089 296.924 13.676 296.937 14.3406C296.946 14.6814 296.786 14.8173 296.466 14.8355C296.302 14.8439 296.137 14.8464 295.971 14.8464C292.999 14.8464 290.03 14.8464 287.063 14.8464C286.797 14.8464 286.525 14.8791 286.273 14.7578C285.991 14.5322 286.046 14.212 286.039 13.9161C286.021 13.0283 286.029 12.1442 285.929 11.2564C285.664 8.88768 283.93 7.83614 281.652 7.89436C279.846 7.93923 278.469 8.70332 277.905 10.5044C277.711 11.1449 277.616 11.8098 277.621 12.4777C277.621 19.1629 277.621 25.8484 277.621 32.5344C277.621 35.0717 279.17 36.5368 281.769 36.5586C282.564 36.5659 283.326 36.4689 284.057 36.1366C285.543 35.4598 286.058 34.196 286.125 32.7406C286.218 30.7431 286.15 28.7382 286.153 26.7419C286.153 26.2968 285.927 26.1355 285.501 26.1355C284.572 26.1355 283.643 26.1476 282.716 26.1355C281.984 26.1221 281.836 25.9875 281.829 25.2865C281.814 23.671 281.81 22.0555 281.829 20.4351C281.836 19.7559 281.985 19.6019 282.672 19.5995C287.232 19.5849 291.792 19.5849 296.352 19.5995C296.58 19.5995 296.807 19.6177 296.99 19.779V33.2197C296.889 33.4939 296.889 33.7944 296.99 34.0687L297 34.1899Z" fill="black"/>
<path d="M297 14.7906C293.55 14.7906 290.099 14.793 286.649 14.7978C286.506 14.7978 286.308 14.8888 286.234 14.662C289.657 14.6701 293.08 14.6798 296.503 14.6911C296.811 14.6911 296.885 14.5698 296.881 14.2982C296.874 13.6117 296.891 12.9252 296.898 12.2363C296.936 12.1854 296.969 12.1902 297 12.2363V14.7906Z" fill="black"/>
<path d="M297.001 12.2448C296.967 12.2472 296.933 12.2472 296.899 12.2448C296.935 11.8021 296.722 11.3413 297.001 10.9107V12.2448Z" fill="black"/>
<path d="M297 34.0687C296.78 33.7849 296.807 33.5023 297 33.2197V34.0687Z" fill="black"/>
<path d="M116.642 5.39349C116.446 6.41955 116.271 7.2916 116.113 8.16606C114.056 19.1738 112.001 30.1819 109.948 41.1905C109.825 41.8438 109.709 42.4995 109.6 43.1577C109.551 43.4488 109.458 43.6089 109.095 43.6077C105.773 43.5931 102.451 43.5931 99.128 43.6077C98.7837 43.6077 98.6859 43.4864 98.6265 43.1674C97.0637 34.7147 95.4926 26.2653 93.9133 17.819C93.1703 13.8312 92.4273 9.84422 91.6843 5.85802C91.6511 5.7441 91.6097 5.63264 91.5604 5.52449C91.3338 5.76706 91.4205 6.00963 91.4192 6.22551C91.3457 14.9919 91.2777 23.7583 91.2149 32.5247C91.1901 36.0201 91.1666 39.5143 91.1679 43.0097C91.1679 43.4803 91.044 43.6161 90.5487 43.6161C87.3909 43.5927 84.2335 43.5927 81.0765 43.6161C80.5576 43.6161 80.4759 43.4524 80.4858 42.9952C80.7285 32.5154 80.9625 22.0353 81.1879 11.5547C81.261 8.26308 81.3502 4.97142 81.4109 1.67978C81.4183 1.29894 81.5347 1.21041 81.9062 1.21162C87.3748 1.22294 92.8434 1.22294 98.3119 1.21162C98.7454 1.21162 98.8172 1.39355 98.8704 1.72829C99.696 6.92814 100.53 12.1272 101.372 17.3254C102.222 22.6037 103.077 27.8812 103.935 33.1578C103.959 33.3022 103.908 33.4902 104.145 33.5884C104.369 33.1894 104.355 32.7394 104.423 32.3222C106.08 22.1465 107.726 11.9691 109.359 1.79015C109.432 1.33412 109.582 1.21041 110.048 1.21162C115.433 1.2286 120.819 1.2286 126.206 1.21162C126.737 1.21162 126.839 1.37899 126.847 1.86049C126.974 8.84806 127.113 15.8352 127.266 22.822C127.412 29.5056 127.573 36.1891 127.75 42.8727C127.767 43.5155 127.584 43.6283 126.979 43.6222C123.883 43.5907 120.787 43.5967 117.691 43.6222C117.209 43.6222 117.072 43.5009 117.072 43.0243C117.002 30.722 116.919 18.4202 116.824 6.11878C116.824 5.9223 116.875 5.71974 116.642 5.39349Z" fill="black"/>
<path d="M245.681 34.4483C245.856 34.27 245.805 34.1002 245.798 33.9474C245.715 28.94 245.627 23.9317 245.534 18.9227C245.432 13.207 245.327 7.49129 245.218 1.77558C245.208 1.33168 245.306 1.19827 245.784 1.20191C248.921 1.22536 252.058 1.22536 255.196 1.20191C255.662 1.20191 255.774 1.32319 255.774 1.77194C255.762 15.3663 255.762 28.961 255.774 42.5561C255.774 43.034 255.65 43.1625 255.163 43.154C250.5 43.1346 245.835 43.1346 241.17 43.154C240.745 43.154 240.563 43.0425 240.441 42.6398C237.088 31.6022 233.727 20.5653 230.357 9.52928C230.279 9.27215 230.244 8.98713 230.052 8.76397C229.83 8.89495 229.915 9.07567 229.917 9.21878C230.011 14.7324 230.109 20.2455 230.211 25.7583C230.286 30.1407 230.357 34.5231 230.424 38.9055C230.445 40.1583 230.467 41.41 230.514 42.6653C230.526 43.0218 230.45 43.1504 230.047 43.1504C226.869 43.1334 223.691 43.1334 220.512 43.1504C220.063 43.1504 220.016 42.9794 220.016 42.6192C220.029 40.5792 220.016 38.5392 220.016 36.4992C220.016 24.9651 220.012 13.4306 220.003 1.89565C220.003 1.34745 220.136 1.19585 220.71 1.19827C225.498 1.22253 230.286 1.22253 235.075 1.19827C235.658 1.19827 235.878 1.36443 236.035 1.8993C239.133 12.5044 242.244 23.1062 245.369 33.7048C245.448 33.9474 245.451 34.2275 245.681 34.4483Z" fill="black"/>
<path d="M208.194 17.6953C208.194 22.8863 208.228 28.0784 208.179 33.2694C208.153 36.0832 207.427 38.709 205.435 40.8581C203.672 42.7587 201.399 43.769 198.884 44.2711C194.55 45.1298 190.224 45.1431 185.986 43.809C181.367 42.3536 178.827 39.0571 178.466 34.3209C178.388 33.3118 178.369 32.304 178.369 31.2949C178.364 21.4992 178.358 11.7023 178.351 1.90415C178.351 1.29773 178.53 1.1922 179.104 1.19706C182.241 1.22616 185.378 1.22616 188.515 1.19706C189.048 1.19706 189.148 1.35231 189.148 1.84108C189.133 12.0217 189.13 22.2022 189.139 32.3828C189.118 32.9073 189.141 33.4326 189.207 33.9534C189.59 36.2457 191.56 37.5228 194.063 37.1347C196.104 36.8182 197.395 35.4367 197.419 33.4077C197.457 30.116 197.439 26.8232 197.439 23.5303C197.439 16.2993 197.435 9.06758 197.427 1.83501C197.427 1.3426 197.538 1.19342 198.063 1.19706C201.219 1.22293 204.376 1.22293 207.534 1.19706C208.077 1.19706 208.256 1.30014 208.253 1.87624C208.227 7.14846 208.238 12.4207 208.238 17.6929L208.194 17.6953Z" fill="black"/>
<path d="M54.8357 5.17882C54.562 5.42867 54.6326 5.78524 54.588 6.0739C53.2168 15.0489 51.8546 24.0239 50.5015 32.9989C49.9913 36.3694 49.4761 39.7399 48.9894 43.114C48.9325 43.5118 48.7876 43.6064 48.4074 43.6052C44.9202 43.5931 41.433 43.5931 37.9457 43.6052C37.4665 43.6052 37.4169 43.4621 37.495 43.0425C39.7471 30.9852 41.9923 18.9264 44.2304 6.86587C44.5474 5.16062 44.8632 3.45416 45.158 1.74405C45.2273 1.34139 45.366 1.19585 45.8217 1.19706C51.7658 1.21646 57.7078 1.21646 63.6478 1.19706C64.0936 1.19706 64.241 1.31834 64.3178 1.74041C66.0143 11.0081 67.7192 20.2742 69.4322 29.5387C70.2636 34.0416 71.1007 38.544 71.9436 43.0461C72.0266 43.4852 71.9609 43.6052 71.4953 43.6028C68.0279 43.5866 64.5605 43.5866 61.0931 43.6028C60.6981 43.6028 60.5643 43.4815 60.5098 43.108C59.3062 34.8235 58.0946 26.5398 56.8752 18.2569C56.2577 14.0459 55.6385 9.8349 55.0177 5.62392C54.9991 5.47353 55.0004 5.30738 54.8357 5.17882Z" fill="black"/>
<path d="M143.778 29.5812C145.45 29.5812 147.122 29.6042 148.792 29.5678C149.322 29.5569 149.441 29.7194 149.424 30.2094C149.387 31.301 149.414 32.3925 149.416 33.4841C149.423 35.8091 150.756 37.2342 153.117 37.4246C153.734 37.4767 154.356 37.4391 154.963 37.313C156.633 36.9577 157.602 35.8006 157.838 34.0189C158.08 32.1997 157.497 30.7334 156.129 29.512C154.87 28.3865 153.436 27.5157 151.974 26.6813C149.409 25.2258 146.75 23.9136 144.32 22.2301C143.48 21.6445 142.677 21.0094 141.916 20.3284C139.379 18.0786 138.301 15.2442 138.36 11.9416C138.372 10.7704 138.517 9.60413 138.792 8.46441C139.794 4.45112 142.561 2.15764 146.459 0.98846C149.461 0.0933844 152.546 0.00242028 155.649 0.1989C157.528 0.320184 159.364 0.639158 161.136 1.30258C165.205 2.82833 167.265 5.76341 167.478 9.97803C167.532 11.0453 167.478 12.1187 167.509 13.1884C167.521 13.5911 167.356 13.6444 167.005 13.6432C163.827 13.6323 160.649 13.6275 157.469 13.6432C157.03 13.6432 156.957 13.4856 156.974 13.1144C156.996 12.3867 156.999 11.659 156.974 10.9313C156.928 9.45529 156.403 8.20729 154.925 7.62028C153.369 7.00415 151.791 7.01385 150.412 8.07145C148.92 9.21273 148.724 11.9137 149.956 13.4795C150.699 14.4231 151.683 15.095 152.698 15.7184C155.214 17.2636 157.91 18.4982 160.453 20.0009C162.08 20.9627 163.641 22.0106 165.034 23.2877C167.148 25.2283 168.351 27.5569 168.478 30.4241C168.563 32.3295 168.522 34.2227 168.149 36.0929C167.32 40.2384 164.621 42.7235 160.64 44.0006C157.494 45.0097 154.251 45.1395 150.98 44.8981C148.554 44.7198 146.206 44.2347 144.027 43.1395C140.603 41.4197 138.734 38.6399 138.24 34.9322C138.022 33.3034 138.126 31.666 138.083 30.0323C138.072 29.6406 138.22 29.5666 138.578 29.5703C140.312 29.5812 142.044 29.5812 143.778 29.5812Z" fill="black"/>
<path d="M5.70141 29.5812C7.37319 29.5812 9.04494 29.6042 10.7155 29.5678C11.2455 29.5569 11.3644 29.7194 11.3471 30.2094C11.3099 31.301 11.3371 32.3925 11.3396 33.4841C11.3458 35.8091 12.6796 37.2342 15.0399 37.4246C15.6576 37.4767 16.2797 37.4391 16.8862 37.313C18.5568 36.9577 19.5252 35.8006 19.7617 34.0189C20.0032 32.1997 19.4199 30.7334 18.0527 29.512C16.7933 28.3865 15.3593 27.5157 13.8968 26.6813C11.3322 25.2258 8.67345 23.9136 6.2438 22.2301C5.4036 21.6445 4.60051 21.0094 3.83892 20.3284C1.30276 18.0786 0.224161 15.2442 0.283602 11.9416C0.295172 10.7704 0.440099 9.60413 0.715757 8.46441C1.71759 4.45112 4.48409 2.15764 8.38244 0.98846C11.3842 0.0933844 14.469 0.00242028 17.5723 0.1989C19.4509 0.320184 21.2874 0.639158 23.0594 1.30258C27.1287 2.82833 29.1881 5.76341 29.4011 9.97803C29.4555 11.0453 29.4011 12.1187 29.432 13.1884C29.4444 13.5911 29.2797 13.6444 28.928 13.6432C25.7504 13.6323 22.5728 13.6275 19.3927 13.6432C18.9531 13.6432 18.88 13.4856 18.8973 13.1144C18.9196 12.3867 18.9221 11.659 18.8973 10.9313C18.8515 9.45529 18.3264 8.20729 16.8478 7.62028C15.2925 7.00415 13.7148 7.01385 12.3353 8.07145C10.843 9.21273 10.6474 11.9137 11.8796 13.4795C12.6226 14.4231 13.6058 15.095 14.6213 15.7184C17.1376 17.2636 19.8335 18.4982 22.3759 20.0009C24.0031 20.9627 25.5646 22.0106 26.9578 23.2877C29.0717 25.2283 30.2741 27.5569 30.4017 30.4241C30.4859 32.3295 30.445 34.2227 30.0722 36.0929C29.2438 40.2384 26.5442 42.7235 22.5629 44.0006C19.4175 45.0097 16.1742 45.1395 12.9037 44.8981C10.4778 44.7198 8.1298 44.2347 5.95029 43.1395C2.52624 41.4197 0.657559 38.6399 0.163455 34.9322C-0.054496 33.3034 0.0495235 31.666 0.00618107 30.0323C-0.00496414 29.6406 0.143639 29.5666 0.501524 29.5703C2.23522 29.5812 3.96771 29.5812 5.70141 29.5812Z" fill="black"/>
</g>
<defs>
<clipPath id="clip0_110_16">
<rect width="297" height="45" fill="white"/>
</clipPath>
</defs>
</svg>
