<svg width="748" height="115" viewBox="0 0 748 115" fill="none" xmlns="http://www.w3.org/2000/svg">
<g clip-path="url(#clip0_110_16)">
<path d="M748 87.3743C747.326 87.4487 747.594 87.9942 747.548 88.3413C745.845 99.8373 739.164 107.298 728.239 110.751C715.14 114.892 701.91 114.876 689.063 109.681C678.397 105.373 672.877 97.0478 672.322 85.7223C671.473 68.3962 672.113 51.0515 672.01 33.7192C672.007 31.0354 672.216 28.3555 672.634 25.704C674.561 13.0767 681.965 5.27217 694.235 2.1262C705.939 -0.874097 717.713 -0.799694 729.212 3.14904C739.791 6.78163 745.854 14.3072 747.442 25.3692C747.532 25.9891 747.198 26.8291 748 27.2785V27.8984C747.644 29.101 747.934 30.3284 747.841 31.5403C747.841 33.245 747.81 34.9497 747.841 36.6482C747.863 37.5192 747.46 37.8663 746.656 37.9128C746.241 37.9345 745.826 37.9407 745.408 37.9407C737.923 37.9407 730.445 37.9407 722.974 37.9407C722.304 37.9407 721.618 38.0244 720.985 37.7145C720.274 37.1379 720.411 36.3197 720.395 35.5634C720.348 33.2946 720.37 31.0351 720.118 28.7663C719.45 22.713 715.084 20.0257 709.345 20.1745C704.798 20.2891 701.33 22.2418 699.908 26.8446C699.421 28.4814 699.18 30.1807 699.193 31.8874C699.193 48.9717 699.193 66.0571 699.193 83.1435C699.193 89.6276 703.095 93.3718 709.641 93.4276C711.644 93.4462 713.562 93.1982 715.402 92.349C719.145 90.6195 720.442 87.3898 720.61 83.6704C720.844 78.5656 720.673 73.4421 720.682 68.3404C720.682 67.2029 720.111 66.7907 719.039 66.7907C716.699 66.7907 714.36 66.8216 712.024 66.7907C710.181 66.7566 709.81 66.4125 709.791 64.621C709.754 60.4925 709.744 56.364 709.791 52.2231C709.81 50.4874 710.184 50.0938 711.915 50.0876C723.399 50.0504 734.883 50.0504 746.369 50.0876C746.943 50.0876 747.513 50.1341 747.975 50.5463V84.8947C747.719 85.5956 747.719 86.3635 747.975 87.0644L748 87.3743Z" fill="black"/>
<path d="M748 37.7982C739.311 37.7982 730.621 37.8044 721.93 37.8168C721.571 37.8168 721.072 38.0492 720.885 37.4696C729.505 37.4903 738.127 37.5151 746.749 37.544C747.523 37.544 747.71 37.2341 747.7 36.5398C747.682 34.7855 747.725 33.0312 747.744 31.2707C747.838 31.1405 747.922 31.1529 748 31.2707V37.7982Z" fill="black"/>
<path d="M748 31.2924C747.915 31.2985 747.829 31.2985 747.744 31.2924C747.835 30.1611 747.301 28.9832 748 27.8829V31.2924Z" fill="black"/>
<path d="M748 87.0644C747.445 86.3391 747.513 85.617 748 84.8948V87.0644Z" fill="black"/>
<path d="M293.765 13.7833C293.273 16.4055 292.83 18.6341 292.434 20.8688C287.252 48.9997 282.076 77.1315 276.905 105.264C276.595 106.934 276.303 108.61 276.029 110.292C275.907 111.036 275.673 111.445 274.759 111.442C266.392 111.405 258.025 111.405 249.656 111.442C248.789 111.442 248.542 111.132 248.393 110.317C244.457 88.7154 240.5 67.1223 236.522 45.5375C234.651 35.3464 232.78 25.1574 230.909 14.9705C230.825 14.6793 230.721 14.3945 230.597 14.1181C230.026 14.738 230.244 15.3579 230.241 15.9096C230.056 38.3127 229.885 60.7157 229.727 83.1187C229.664 92.0514 229.605 100.981 229.608 109.914C229.608 111.116 229.296 111.463 228.049 111.463C220.096 111.404 212.144 111.404 204.193 111.463C202.886 111.463 202.68 111.045 202.705 109.877C203.316 83.0949 203.906 56.3124 204.473 29.5287C204.657 21.1167 204.882 12.7047 205.035 4.29274C205.054 3.3195 205.347 3.09325 206.282 3.09634C220.055 3.12527 233.828 3.12527 247.601 3.09634C248.692 3.09634 248.873 3.56127 249.007 4.41673C251.086 17.7052 253.186 30.9917 255.307 44.276C257.449 57.765 259.601 71.2518 261.763 84.7366C261.822 85.1055 261.694 85.5859 262.29 85.837C262.855 84.8172 262.82 83.6673 262.992 82.6011C267.165 56.5965 271.309 30.5877 275.424 4.5748C275.608 3.4094 275.985 3.09325 277.158 3.09634C290.72 3.13974 304.285 3.13974 317.852 3.09634C319.19 3.09634 319.446 3.52407 319.468 4.75456C319.786 22.6117 320.137 40.4678 320.522 58.3229C320.89 75.4031 321.296 92.4833 321.741 109.563C321.785 111.206 321.323 111.494 319.798 111.479C312.001 111.398 304.204 111.414 296.407 111.479C295.194 111.479 294.848 111.169 294.848 109.951C294.671 78.5118 294.463 47.0739 294.224 15.6369C294.224 15.1347 294.352 14.6171 293.765 13.7833Z" fill="black"/>
<path d="M618.753 88.0345C619.193 87.5789 619.065 87.145 619.046 86.7544C618.838 73.9577 618.617 61.1589 618.382 48.3581C618.126 33.7513 617.861 19.1444 617.586 4.53762C617.562 3.40321 617.808 3.06228 619.012 3.07158C626.913 3.1315 634.814 3.1315 642.715 3.07158C643.891 3.07158 644.171 3.38151 644.171 4.52832C644.14 39.2694 644.14 74.0114 644.171 108.755C644.171 109.976 643.859 110.304 642.634 110.283C630.888 110.233 619.141 110.233 607.391 110.283C606.321 110.283 605.863 109.997 605.554 108.968C597.11 80.7611 588.645 52.5558 580.157 24.3526C579.961 23.6955 579.874 22.9671 579.39 22.3968C578.832 22.7316 579.044 23.1934 579.05 23.5591C579.287 37.6494 579.534 51.7386 579.789 65.8267C579.979 77.0262 580.158 88.2256 580.326 99.4251C580.379 102.627 580.435 105.826 580.554 109.033C580.585 109.945 580.391 110.273 579.378 110.273C571.375 110.23 563.37 110.23 555.363 110.273C554.234 110.273 554.115 109.836 554.115 108.916C554.147 103.702 554.115 98.4891 554.115 93.2757C554.115 63.7997 554.104 34.3226 554.081 4.84447C554.081 3.4435 554.418 3.05607 555.862 3.06227C567.921 3.12426 579.981 3.12426 592.04 3.06227C593.509 3.06227 594.064 3.48691 594.457 4.85378C602.261 31.9556 610.097 59.0492 617.967 86.1345C618.167 86.7544 618.173 87.4704 618.753 88.0345Z" fill="black"/>
<path d="M524.34 45.2214C524.34 58.4872 524.427 71.7561 524.302 85.0218C524.237 92.2126 522.409 98.923 517.391 104.415C512.953 109.272 507.227 111.854 500.892 113.137C489.977 115.332 479.082 115.366 468.41 111.956C456.777 108.237 450.38 99.8125 449.469 87.7091C449.273 85.1303 449.226 82.5546 449.226 79.9759C449.213 54.9424 449.198 29.9059 449.179 4.8662C449.179 3.31646 449.631 3.04678 451.075 3.05918C458.976 3.13356 466.878 3.13356 474.779 3.05918C476.12 3.05918 476.372 3.45593 476.372 4.70502C476.335 30.7221 476.327 56.7391 476.35 82.7561C476.298 84.0965 476.355 85.4389 476.522 86.77C477.486 92.628 482.448 95.8917 488.751 94.8999C493.891 94.0909 497.144 90.5606 497.203 85.3752C497.3 76.9632 497.253 68.5481 497.253 60.133C497.253 41.6539 497.243 23.1727 497.225 4.6895C497.225 3.43112 497.502 3.04988 498.825 3.05918C506.773 3.1253 514.724 3.1253 522.677 3.05918C524.047 3.05918 524.496 3.32262 524.489 4.79488C524.424 18.2683 524.452 31.7418 524.452 45.2152L524.34 45.2214Z" fill="black"/>
<path d="M138.105 13.2348C137.415 13.8733 137.593 14.7845 137.481 15.5222C134.027 38.4583 130.597 61.3945 127.189 84.3306C125.904 92.9441 124.606 101.558 123.381 110.18C123.237 111.197 122.872 111.439 121.915 111.436C113.132 111.405 104.35 111.405 95.5671 111.436C94.3601 111.436 94.2353 111.07 94.4318 109.997C100.104 79.1845 105.758 48.3674 111.395 17.5461C112.194 13.1883 112.989 8.8273 113.731 4.45703C113.906 3.428 114.255 3.05606 115.403 3.05916C130.373 3.10875 145.338 3.10875 160.298 3.05916C161.421 3.05916 161.792 3.3691 161.986 4.44772C166.258 28.1319 170.552 51.8119 174.866 75.4878C176.96 86.9952 179.068 98.5015 181.191 110.007C181.4 111.129 181.235 111.436 180.062 111.429C171.329 111.388 162.597 111.388 153.864 111.429C152.869 111.429 152.532 111.119 152.395 110.165C149.364 88.9933 146.312 67.8238 143.241 46.6565C141.686 35.8951 140.127 25.1337 138.563 14.3723C138.516 13.9879 138.52 13.5633 138.105 13.2348Z" fill="black"/>
<path d="M362.108 75.5963C366.318 75.5963 370.529 75.6552 374.736 75.5623C376.071 75.5344 376.37 75.9497 376.327 77.2019C376.233 79.9914 376.302 82.781 376.308 85.5705C376.323 91.5122 379.683 95.1541 385.627 95.6407C387.183 95.7739 388.75 95.6778 390.277 95.3555C394.484 94.4474 396.923 91.4905 397.519 86.9373C398.127 82.2881 396.658 78.5409 393.215 75.4197C390.043 72.5434 386.432 70.3179 382.748 68.1855C376.289 64.4661 369.593 61.1125 363.474 56.8104C361.358 55.3137 359.335 53.6907 357.417 51.9504C351.03 46.2009 348.313 38.9574 348.463 30.5175C348.492 27.5244 348.857 24.5439 349.551 21.6313C352.075 11.3751 359.042 5.514 368.86 2.5261C376.42 0.238686 384.189 0.00622246 392.005 0.508338C396.736 0.818286 401.361 1.63344 405.824 3.32886C416.073 7.228 421.26 14.7288 421.796 25.4994C421.933 28.227 421.796 30.97 421.874 33.7038C421.905 34.7328 421.49 34.8692 420.605 34.8661C412.602 34.8382 404.599 34.8258 396.59 34.8661C395.482 34.8661 395.298 34.4631 395.342 33.5147C395.398 31.655 395.405 29.7953 395.342 27.9356C395.227 24.1636 393.904 20.9742 390.18 19.4741C386.263 17.8995 382.29 17.9243 378.815 20.6271C375.057 23.5437 374.565 30.4462 377.668 34.4476C379.539 36.859 382.015 38.5761 384.573 40.1693C390.91 44.118 397.7 47.2733 404.103 51.1136C408.201 53.5714 412.134 56.2494 415.643 59.5131C420.966 64.4723 423.995 70.4233 424.316 77.7505C424.528 82.6198 424.425 87.458 423.486 92.2374C421.4 102.831 414.601 109.182 404.574 112.446C396.652 115.025 388.484 115.356 380.247 114.74C374.137 114.284 368.224 113.044 362.735 110.245C354.111 105.85 349.405 98.7464 348.16 89.2712C347.612 85.1086 347.874 80.9243 347.764 76.7493C347.736 75.7482 348.111 75.5592 349.012 75.5685C353.378 75.5964 357.742 75.5963 362.108 75.5963Z" fill="black"/>
<path d="M14.359 75.5963C18.5695 75.5963 22.7798 75.6552 26.9871 75.5623C28.3219 75.5344 28.6214 75.9497 28.5777 77.2019C28.4841 79.9914 28.5527 82.781 28.559 85.5705C28.5746 91.5122 31.9337 95.1541 37.8781 95.6407C39.4339 95.7739 41.0008 95.6778 42.5282 95.3555C46.7355 94.4474 49.1745 91.4905 49.7702 86.9373C50.3784 82.2881 48.9093 78.5409 45.4661 75.4197C42.2943 72.5434 38.6827 70.3179 34.9993 68.1855C28.5402 64.4661 21.8442 61.1125 15.7251 56.8104C13.609 55.3137 11.5864 53.6907 9.66832 51.9504C3.28097 46.2009 0.564488 38.9574 0.714191 30.5175C0.74333 27.5244 1.10833 24.5439 1.80258 21.6313C4.32571 11.3751 11.2932 5.514 21.1113 2.5261C28.6713 0.238686 36.4403 0.00622246 44.256 0.508338C48.9873 0.818286 53.6125 1.63344 58.0756 3.32886C68.324 7.228 73.5106 14.7288 74.0471 25.4994C74.1843 28.227 74.0471 30.97 74.125 33.7038C74.1562 34.7328 73.7415 34.8692 72.8557 34.8661C64.8528 34.8382 56.8499 34.8258 48.8408 34.8661C47.7336 34.8661 47.5496 34.4631 47.5932 33.5147C47.6494 31.655 47.6556 29.7953 47.5932 27.9356C47.4779 24.1636 46.1554 20.9742 42.4315 19.4741C38.5143 17.8995 34.5409 17.9243 31.0665 20.6271C27.3083 23.5437 26.8157 30.4462 29.9189 34.4476C31.7902 36.859 34.2664 38.5761 36.8239 40.1693C43.1613 44.118 49.951 47.2733 56.354 51.1136C60.4521 53.5714 64.3849 56.2494 67.8936 59.5131C73.2175 64.4723 76.2458 70.4233 76.5671 77.7505C76.7792 82.6198 76.6762 87.458 75.7374 92.2374C73.6509 102.831 66.852 109.182 56.825 112.446C48.9032 115.025 40.735 115.356 32.4982 114.74C26.3884 114.284 20.475 113.044 14.9859 110.245C6.36231 105.85 1.65601 98.7464 0.411598 89.2712C-0.137315 85.1086 0.12466 80.9243 0.0155016 76.7493C-0.0125678 75.7482 0.361691 75.5592 1.26303 75.5685C5.62938 75.5964 9.99269 75.5963 14.359 75.5963Z" fill="black"/>
</g>
<defs>
<clipPath id="clip0_110_16">
<rect width="748" height="115" fill="white"/>
</clipPath>
</defs>
</svg>
